<?xml version="1.0" encoding="UTF-8" standalone="no"?>
<!DOCTYPE svg PUBLIC "-//W3C//DTD SVG 1.1//EN" "http://www.w3.org/Graphics/SVG/1.1/DTD/svg11.dtd">
<svg width="1427" height="1427" viewBox="0 0 1427 1427" version="1.1" xmlns="http://www.w3.org/2000/svg" xmlns:xlink="http://www.w3.org/1999/xlink" xml:space="preserve" xmlns:serif="http://www.serif.com/" style="fill-rule:evenodd;clip-rule:evenodd;stroke-linejoin:round;stroke-miterlimit:2;">
    <g id="OBJECTS" transform="matrix(4.16667,0,0,4.16667,-328.333,-221.777)">
        <g transform="matrix(1,0,0,1,359.131,179.611)">
            <path d="M0,-0.014C0,60.26 -48.864,109.124 -109.138,109.124C-169.398,109.124 -218.262,60.26 -218.262,-0.014C-218.262,-43.799 -192.467,-81.554 -155.248,-98.939C-153.817,-99.613 -152.344,-100.26 -150.871,-100.866C-138.015,-106.206 -123.921,-109.138 -109.138,-109.138C-94.355,-109.138 -80.26,-106.206 -67.404,-100.866C-65.918,-100.26 -64.472,-99.627 -63.027,-98.939C-25.794,-81.568 0,-43.799 0,-0.014" style="fill:rgb(184,220,177);fill-rule:nonzero;"/>
        </g>
        <g transform="matrix(1,0,0,1,239.535,378.38)">
            <path d="M0,-18.001C-0.023,-17.121 -0.036,-16.568 -0.036,-16.451L-2.516,-2.104C-2.516,-0.941 -1.575,0 -0.424,0L21.341,0C22.504,0 23.445,-0.941 23.445,-2.104L21.443,-13.682L0,-18.001Z" style="fill:rgb(0,105,171);fill-rule:nonzero;"/>
        </g>
        <g transform="matrix(-0.980313,-0.197448,-0.197448,0.980313,239.96,351.38)">
            <path d="M-20.071,-3.082L0.72,-3.082C0.404,-1.267 0.11,0.433 -0.158,1.974L-21.233,1.974C-20.909,0.561 -20.513,-1.158 -20.071,-3.082" style="fill:rgb(0,105,171);fill-rule:nonzero;"/>
        </g>
        <g transform="matrix(-0.980314,-0.197444,-0.197444,0.980314,240.261,339.278)">
            <path d="M-19.418,-3.146L0.714,-3.146C0.414,-1.435 0.118,0.256 -0.17,1.911L-20.575,1.91C-20.202,0.283 -19.814,-1.414 -19.418,-3.146" style="fill:rgb(0,105,171);fill-rule:nonzero;"/>
        </g>
        <g transform="matrix(1,0,0,1,259.459,316.914)">
            <path d="M0,3.723C-0.026,2.44 -0.051,1.199 -0.073,0L-18.484,0L0,3.723Z" style="fill:rgb(0,105,171);fill-rule:nonzero;"/>
        </g>
        <g transform="matrix(1,0,0,1,293.765,268.949)">
            <path d="M0,-115.175C-2.048,-115.175 -3.709,-116.835 -3.709,-118.884C-3.709,-120.932 -2.048,-122.593 0,-122.593C2.048,-122.593 3.709,-120.932 3.709,-118.884C3.709,-116.835 2.048,-115.175 0,-115.175M0,-103.657C-2.048,-103.657 -3.709,-105.318 -3.709,-107.366C-3.709,-109.415 -2.048,-111.075 0,-111.075C2.048,-111.075 3.709,-109.415 3.709,-107.366C3.709,-105.318 2.048,-103.657 0,-103.657M0,-92.14C-2.048,-92.14 -3.709,-93.8 -3.709,-95.849C-3.709,-97.897 -2.048,-99.558 0,-99.558C2.048,-99.558 3.709,-97.897 3.709,-95.849C3.709,-93.8 2.048,-92.14 0,-92.14M0,-80.622C-2.048,-80.622 -3.709,-82.283 -3.709,-84.331C-3.709,-86.38 -2.048,-88.04 0,-88.04C2.048,-88.04 3.709,-86.38 3.709,-84.331C3.709,-82.283 2.048,-80.622 0,-80.622M0,-69.105C-2.048,-69.105 -3.709,-70.765 -3.709,-72.814C-3.709,-74.862 -2.048,-76.523 0,-76.523C2.048,-76.523 3.709,-74.862 3.709,-72.814C3.709,-70.765 2.048,-69.105 0,-69.105M0,-57.587C-2.048,-57.587 -3.709,-59.248 -3.709,-61.296C-3.709,-63.345 -2.048,-65.005 0,-65.005C2.048,-65.005 3.709,-63.345 3.709,-61.296C3.709,-59.248 2.048,-57.587 0,-57.587M-12.505,-126.692C-14.553,-126.692 -16.214,-128.353 -16.214,-130.402C-16.214,-132.45 -14.553,-134.11 -12.505,-134.11C-10.457,-134.11 -8.796,-132.45 -8.796,-130.402C-8.796,-128.353 -10.457,-126.692 -12.505,-126.692M-12.505,-115.175C-14.553,-115.175 -16.214,-116.835 -16.214,-118.884C-16.214,-120.932 -14.553,-122.593 -12.505,-122.593C-10.457,-122.593 -8.796,-120.932 -8.796,-118.884C-8.796,-116.835 -10.457,-115.175 -12.505,-115.175M-12.505,-103.657C-14.553,-103.657 -16.214,-105.318 -16.214,-107.366C-16.214,-109.415 -14.553,-111.075 -12.505,-111.075C-10.457,-111.075 -8.796,-109.415 -8.796,-107.366C-8.796,-105.318 -10.457,-103.657 -12.505,-103.657M-12.505,-92.14C-14.553,-92.14 -16.214,-93.8 -16.214,-95.849C-16.214,-97.897 -14.553,-99.558 -12.505,-99.558C-10.457,-99.558 -8.796,-97.897 -8.796,-95.849C-8.796,-93.8 -10.457,-92.14 -12.505,-92.14M-12.505,-80.622C-14.553,-80.622 -16.214,-82.283 -16.214,-84.331C-16.214,-86.38 -14.553,-88.04 -12.505,-88.04C-10.457,-88.04 -8.796,-86.38 -8.796,-84.331C-8.796,-82.283 -10.457,-80.622 -12.505,-80.622M-12.505,-69.105C-14.553,-69.105 -16.214,-70.765 -16.214,-72.814C-16.214,-74.862 -14.553,-76.523 -12.505,-76.523C-10.457,-76.523 -8.796,-74.862 -8.796,-72.814C-8.796,-70.765 -10.457,-69.105 -12.505,-69.105M-12.505,-57.587C-14.553,-57.587 -16.214,-59.248 -16.214,-61.296C-16.214,-63.345 -14.553,-65.005 -12.505,-65.005C-10.457,-65.005 -8.796,-63.345 -8.796,-61.296C-8.796,-59.248 -10.457,-57.587 -12.505,-57.587M-12.505,-47.117C-14.553,-47.117 -16.214,-48.777 -16.214,-50.826C-16.214,-52.874 -14.553,-54.535 -12.505,-54.535C-10.457,-54.535 -8.796,-52.874 -8.796,-50.826C-8.796,-48.777 -10.457,-47.117 -12.505,-47.117M-34.406,8.433C-39.931,12.961 -47.603,12.961 -53.127,8.433C-60.5,2.411 -68.283,-6.213 -66.522,-10.077C-65.094,-13.232 -57.887,-11.826 -51.965,-10.033C-46.606,-8.416 -40.927,-8.416 -35.569,-10.033C-29.646,-11.826 -22.45,-13.232 -21.011,-10.077C-19.262,-6.213 -27.044,2.4 -34.406,8.433M-75.031,-126.692C-77.079,-126.692 -78.74,-128.353 -78.74,-130.402C-78.74,-132.45 -77.079,-134.11 -75.031,-134.11C-72.982,-134.11 -71.322,-132.45 -71.322,-130.402C-71.322,-128.353 -72.982,-126.692 -75.031,-126.692M-75.031,-115.175C-77.079,-115.175 -78.74,-116.835 -78.74,-118.884C-78.74,-120.932 -77.079,-122.593 -75.031,-122.593C-72.982,-122.593 -71.322,-120.932 -71.322,-118.884C-71.322,-116.835 -72.982,-115.175 -75.031,-115.175M-75.031,-103.657C-77.079,-103.657 -78.74,-105.318 -78.74,-107.366C-78.74,-109.415 -77.079,-111.075 -75.031,-111.075C-72.982,-111.075 -71.322,-109.415 -71.322,-107.366C-71.322,-105.318 -72.982,-103.657 -75.031,-103.657M-75.031,-92.14C-77.079,-92.14 -78.74,-93.8 -78.74,-95.849C-78.74,-97.897 -77.079,-99.558 -75.031,-99.558C-72.982,-99.558 -71.322,-97.897 -71.322,-95.849C-71.322,-93.8 -72.982,-92.14 -75.031,-92.14M-75.031,-80.622C-77.079,-80.622 -78.74,-82.283 -78.74,-84.331C-78.74,-86.38 -77.079,-88.04 -75.031,-88.04C-72.982,-88.04 -71.322,-86.38 -71.322,-84.331C-71.322,-82.283 -72.982,-80.622 -75.031,-80.622M-75.031,-69.105C-77.079,-69.105 -78.74,-70.765 -78.74,-72.814C-78.74,-74.862 -77.079,-76.523 -75.031,-76.523C-72.982,-76.523 -71.322,-74.862 -71.322,-72.814C-71.322,-70.765 -72.982,-69.105 -75.031,-69.105M-75.031,-57.587C-77.079,-57.587 -78.74,-59.248 -78.74,-61.296C-78.74,-63.345 -77.079,-65.005 -75.031,-65.005C-72.982,-65.005 -71.322,-63.345 -71.322,-61.296C-71.322,-59.248 -72.982,-57.587 -75.031,-57.587M-75.031,-47.117C-77.079,-47.117 -78.74,-48.777 -78.74,-50.826C-78.74,-52.874 -77.079,-54.535 -75.031,-54.535C-72.982,-54.535 -71.322,-52.874 -71.322,-50.826C-71.322,-48.777 -72.982,-47.117 -75.031,-47.117M-87.536,-115.175C-89.584,-115.175 -91.245,-116.835 -91.245,-118.884C-91.245,-120.932 -89.584,-122.593 -87.536,-122.593C-85.487,-122.593 -83.827,-120.932 -83.827,-118.884C-83.827,-116.835 -85.487,-115.175 -87.536,-115.175M-87.536,-103.657C-89.584,-103.657 -91.245,-105.318 -91.245,-107.366C-91.245,-109.415 -89.584,-111.075 -87.536,-111.075C-85.487,-111.075 -83.827,-109.415 -83.827,-107.366C-83.827,-105.318 -85.487,-103.657 -87.536,-103.657M-87.536,-92.14C-89.584,-92.14 -91.245,-93.8 -91.245,-95.849C-91.245,-97.897 -89.584,-99.558 -87.536,-99.558C-85.487,-99.558 -83.827,-97.897 -83.827,-95.849C-83.827,-93.8 -85.487,-92.14 -87.536,-92.14M-87.536,-80.622C-89.584,-80.622 -91.245,-82.283 -91.245,-84.331C-91.245,-86.38 -89.584,-88.04 -87.536,-88.04C-85.487,-88.04 -83.827,-86.38 -83.827,-84.331C-83.827,-82.283 -85.487,-80.622 -87.536,-80.622M-87.536,-69.105C-89.584,-69.105 -91.245,-70.765 -91.245,-72.814C-91.245,-74.862 -89.584,-76.523 -87.536,-76.523C-85.487,-76.523 -83.827,-74.862 -83.827,-72.814C-83.827,-70.765 -85.487,-69.105 -87.536,-69.105M-87.536,-57.587C-89.584,-57.587 -91.245,-59.248 -91.245,-61.296C-91.245,-63.345 -89.584,-65.005 -87.536,-65.005C-85.487,-65.005 -83.827,-63.345 -83.827,-61.296C-83.827,-59.248 -85.487,-57.587 -87.536,-57.587M-62.525,-54.535C-60.477,-54.535 -58.817,-52.874 -58.817,-50.826C-58.817,-48.777 -60.477,-47.117 -62.525,-47.117C-64.574,-47.117 -66.234,-48.777 -66.234,-50.826C-66.234,-52.874 -64.574,-54.535 -62.525,-54.535M-62.525,-65.005C-60.477,-65.005 -58.817,-63.345 -58.817,-61.296C-58.817,-59.248 -60.477,-57.587 -62.525,-57.587C-64.574,-57.587 -66.234,-59.248 -66.234,-61.296C-66.234,-63.345 -64.574,-65.005 -62.525,-65.005M-62.525,-76.523C-60.477,-76.523 -58.817,-74.862 -58.817,-72.814C-58.817,-70.765 -60.477,-69.105 -62.525,-69.105C-64.574,-69.105 -66.234,-70.765 -66.234,-72.814C-66.234,-74.862 -64.574,-76.523 -62.525,-76.523M-62.525,-88.04C-60.477,-88.04 -58.817,-86.38 -58.817,-84.331C-58.817,-82.283 -60.477,-80.622 -62.525,-80.622C-64.574,-80.622 -66.234,-82.283 -66.234,-84.331C-66.234,-86.38 -64.574,-88.04 -62.525,-88.04M-62.525,-99.558C-60.477,-99.558 -58.817,-97.897 -58.817,-95.849C-58.817,-93.8 -60.477,-92.14 -62.525,-92.14C-64.574,-92.14 -66.234,-93.8 -66.234,-95.849C-66.234,-97.897 -64.574,-99.558 -62.525,-99.558M-62.525,-111.075C-60.477,-111.075 -58.817,-109.415 -58.817,-107.366C-58.817,-105.318 -60.477,-103.657 -62.525,-103.657C-64.574,-103.657 -66.234,-105.318 -66.234,-107.366C-66.234,-109.415 -64.574,-111.075 -62.525,-111.075M-62.525,-122.593C-60.477,-122.593 -58.817,-120.932 -58.817,-118.884C-58.817,-116.835 -60.477,-115.175 -62.525,-115.175C-64.574,-115.175 -66.234,-116.835 -66.234,-118.884C-66.234,-120.932 -64.574,-122.593 -62.525,-122.593M-62.525,-134.11C-60.477,-134.11 -58.817,-132.45 -58.817,-130.402C-58.817,-128.353 -60.477,-126.692 -62.525,-126.692C-64.574,-126.692 -66.234,-128.353 -66.234,-130.402C-66.234,-132.45 -64.574,-134.11 -62.525,-134.11M-50.02,-54.535C-47.972,-54.535 -46.311,-52.874 -46.311,-50.826C-46.311,-48.777 -47.972,-47.117 -50.02,-47.117C-52.069,-47.117 -53.729,-48.777 -53.729,-50.826C-53.729,-52.874 -52.069,-54.535 -50.02,-54.535M-50.02,-65.005C-47.972,-65.005 -46.311,-63.345 -46.311,-61.296C-46.311,-59.248 -47.972,-57.587 -50.02,-57.587C-52.069,-57.587 -53.729,-59.248 -53.729,-61.296C-53.729,-63.345 -52.069,-65.005 -50.02,-65.005M-50.02,-76.523C-47.972,-76.523 -46.311,-74.862 -46.311,-72.814C-46.311,-70.765 -47.972,-69.105 -50.02,-69.105C-52.069,-69.105 -53.729,-70.765 -53.729,-72.814C-53.729,-74.862 -52.069,-76.523 -50.02,-76.523M-50.02,-88.04C-47.972,-88.04 -46.311,-86.38 -46.311,-84.331C-46.311,-82.283 -47.972,-80.622 -50.02,-80.622C-52.069,-80.622 -53.729,-82.283 -53.729,-84.331C-53.729,-86.38 -52.069,-88.04 -50.02,-88.04M-50.02,-99.558C-47.972,-99.558 -46.311,-97.897 -46.311,-95.849C-46.311,-93.8 -47.972,-92.14 -50.02,-92.14C-52.069,-92.14 -53.729,-93.8 -53.729,-95.849C-53.729,-97.897 -52.069,-99.558 -50.02,-99.558M-50.02,-111.075C-47.972,-111.075 -46.311,-109.415 -46.311,-107.366C-46.311,-105.318 -47.972,-103.657 -50.02,-103.657C-52.069,-103.657 -53.729,-105.318 -53.729,-107.366C-53.729,-109.415 -52.069,-111.075 -50.02,-111.075M-50.02,-122.593C-47.972,-122.593 -46.311,-120.932 -46.311,-118.884C-46.311,-116.835 -47.972,-115.175 -50.02,-115.175C-52.069,-115.175 -53.729,-116.835 -53.729,-118.884C-53.729,-120.932 -52.069,-122.593 -50.02,-122.593M-50.02,-134.11C-47.972,-134.11 -46.311,-132.45 -46.311,-130.402C-46.311,-128.353 -47.972,-126.692 -50.02,-126.692C-52.069,-126.692 -53.729,-128.353 -53.729,-130.402C-53.729,-132.45 -52.069,-134.11 -50.02,-134.11M-37.515,-54.535C-35.467,-54.535 -33.806,-52.874 -33.806,-50.826C-33.806,-48.777 -35.467,-47.117 -37.515,-47.117C-39.564,-47.117 -41.224,-48.777 -41.224,-50.826C-41.224,-52.874 -39.564,-54.535 -37.515,-54.535M-37.515,-65.005C-35.467,-65.005 -33.806,-63.345 -33.806,-61.296C-33.806,-59.248 -35.467,-57.587 -37.515,-57.587C-39.564,-57.587 -41.224,-59.248 -41.224,-61.296C-41.224,-63.345 -39.564,-65.005 -37.515,-65.005M-37.515,-76.523C-35.467,-76.523 -33.806,-74.862 -33.806,-72.814C-33.806,-70.765 -35.467,-69.105 -37.515,-69.105C-39.564,-69.105 -41.224,-70.765 -41.224,-72.814C-41.224,-74.862 -39.564,-76.523 -37.515,-76.523M-37.515,-88.04C-35.467,-88.04 -33.806,-86.38 -33.806,-84.331C-33.806,-82.283 -35.467,-80.622 -37.515,-80.622C-39.564,-80.622 -41.224,-82.283 -41.224,-84.331C-41.224,-86.38 -39.564,-88.04 -37.515,-88.04M-37.515,-99.558C-35.467,-99.558 -33.806,-97.897 -33.806,-95.849C-33.806,-93.8 -35.467,-92.14 -37.515,-92.14C-39.564,-92.14 -41.224,-93.8 -41.224,-95.849C-41.224,-97.897 -39.564,-99.558 -37.515,-99.558M-37.515,-111.075C-35.467,-111.075 -33.806,-109.415 -33.806,-107.366C-33.806,-105.318 -35.467,-103.657 -37.515,-103.657C-39.564,-103.657 -41.224,-105.318 -41.224,-107.366C-41.224,-109.415 -39.564,-111.075 -37.515,-111.075M-37.515,-122.593C-35.467,-122.593 -33.806,-120.932 -33.806,-118.884C-33.806,-116.835 -35.467,-115.175 -37.515,-115.175C-39.564,-115.175 -41.224,-116.835 -41.224,-118.884C-41.224,-120.932 -39.564,-122.593 -37.515,-122.593M-37.515,-134.11C-35.467,-134.11 -33.806,-132.45 -33.806,-130.402C-33.806,-128.353 -35.467,-126.692 -37.515,-126.692C-39.564,-126.692 -41.224,-128.353 -41.224,-130.402C-41.224,-132.45 -39.564,-134.11 -37.515,-134.11M-25.01,-54.535C-22.962,-54.535 -21.301,-52.874 -21.301,-50.826C-21.301,-48.777 -22.962,-47.117 -25.01,-47.117C-27.059,-47.117 -28.719,-48.777 -28.719,-50.826C-28.719,-52.874 -27.059,-54.535 -25.01,-54.535M-25.01,-65.005C-22.962,-65.005 -21.301,-63.345 -21.301,-61.296C-21.301,-59.248 -22.962,-57.587 -25.01,-57.587C-27.059,-57.587 -28.719,-59.248 -28.719,-61.296C-28.719,-63.345 -27.059,-65.005 -25.01,-65.005M-25.01,-76.523C-22.962,-76.523 -21.301,-74.862 -21.301,-72.814C-21.301,-70.765 -22.962,-69.105 -25.01,-69.105C-27.059,-69.105 -28.719,-70.765 -28.719,-72.814C-28.719,-74.862 -27.059,-76.523 -25.01,-76.523M-25.01,-88.04C-22.962,-88.04 -21.301,-86.38 -21.301,-84.331C-21.301,-82.283 -22.962,-80.622 -25.01,-80.622C-27.059,-80.622 -28.719,-82.283 -28.719,-84.331C-28.719,-86.38 -27.059,-88.04 -25.01,-88.04M-25.01,-99.558C-22.962,-99.558 -21.301,-97.897 -21.301,-95.849C-21.301,-93.8 -22.962,-92.14 -25.01,-92.14C-27.059,-92.14 -28.719,-93.8 -28.719,-95.849C-28.719,-97.897 -27.059,-99.558 -25.01,-99.558M-25.01,-111.075C-22.962,-111.075 -21.301,-109.415 -21.301,-107.366C-21.301,-105.318 -22.962,-103.657 -25.01,-103.657C-27.059,-103.657 -28.719,-105.318 -28.719,-107.366C-28.719,-109.415 -27.059,-111.075 -25.01,-111.075M-25.01,-122.593C-22.962,-122.593 -21.301,-120.932 -21.301,-118.884C-21.301,-116.835 -22.962,-115.175 -25.01,-115.175C-27.059,-115.175 -28.719,-116.835 -28.719,-118.884C-28.719,-120.932 -27.059,-122.593 -25.01,-122.593M-25.01,-134.11C-22.962,-134.11 -21.301,-132.45 -21.301,-130.402C-21.301,-128.353 -22.962,-126.692 -25.01,-126.692C-27.059,-126.692 -28.719,-128.353 -28.719,-130.402C-28.719,-132.45 -27.059,-134.11 -25.01,-134.11M31.287,-109.735C22.22,-150.475 -20.258,-156.21 -43.772,-156.21C-67.275,-156.21 -109.753,-150.475 -118.82,-109.735C-126.293,-76.136 -111.193,-46.643 -102.314,-31.521C-83.826,-0.058 -53.027,17.722 -53.027,37.627C-53.027,38.596 -53.035,39.754 -53.049,41.035L-34.484,41.035C-34.498,39.754 -34.506,38.596 -34.506,37.627C-34.506,17.722 -3.707,-0.058 14.781,-31.521C23.659,-46.643 38.76,-76.136 31.287,-109.735" style="fill:rgb(0,105,171);fill-rule:nonzero;"/>
        </g>
        <g transform="matrix(-0.980314,-0.197445,-0.197445,0.980314,240.534,327.163)">
            <path d="M-18.819,-3.203L0.711,-3.203C0.415,-1.548 0.115,0.142 -0.188,1.854L-19.964,1.853C-19.579,0.161 -19.196,-1.53 -18.819,-3.203" style="fill:rgb(0,105,171);fill-rule:nonzero;"/>
        </g>
        <g transform="matrix(1,0,0,1,311.355,140.134)">
            <path d="M0,45.299C0,79.145 -27.515,106.688 -61.362,106.688C-95.194,106.688 -122.723,79.145 -122.723,45.299C-122.723,23.937 -117.892,4.364 -113.625,-12.911C-109.344,-30.212 -105.49,-45.821 -107.472,-59.462C-106.041,-60.136 -104.568,-60.783 -103.095,-61.389C-100.576,-46.661 -104.65,-30.144 -109.179,-11.809C-113.391,5.203 -118.153,24.487 -118.153,45.299C-118.153,76.627 -92.675,102.118 -61.362,102.118C-30.048,102.118 -4.57,76.627 -4.57,45.299C-4.57,24.487 -9.332,5.203 -13.53,-11.809C-18.059,-30.13 -22.133,-46.647 -19.628,-61.389C-18.141,-60.783 -16.696,-60.15 -15.251,-59.462C-17.219,-45.835 -13.365,-30.212 -9.098,-12.911C-4.831,4.364 0,23.937 0,45.299" style="fill:white;fill-rule:nonzero;"/>
        </g>
    </g>
</svg>
